<svg width="301" height="56" viewBox="0 0 301 56" fill="none" xmlns="http://www.w3.org/2000/svg">
<path fill-rule="evenodd" clip-rule="evenodd" d="M59.9716 56H6.24859L6.248 55.999L0 56L12 8.40062H22.0388L12.106 45.99L25.4401 45.9906L28.8257 34.0483L36 45.9906H52.2396L59.5957 17.5192H46.1402L42.9426 29.4799L33.2231 13.6601L49.1285 0L47.0382 9H72L69.7476 17.5192L59.9716 56Z" fill="#20BF6B"/>
<path d="M95.1984 39.1136C94.5351 40.3987 93.6024 41.4558 92.4002 42.2849C91.2187 43.0933 89.7367 43.4975 87.9542 43.4975C86.7727 43.4975 85.6845 43.3005 84.6896 42.9067C83.7155 42.4922 82.8656 41.9222 82.1402 41.1967C81.4355 40.4713 80.8758 39.6215 80.4613 38.6473C80.0675 37.6524 79.8705 36.5642 79.8705 35.3827C79.8705 34.2013 80.0675 33.1131 80.4613 32.1182C80.8758 31.1233 81.4355 30.2735 82.1402 29.5687C82.8656 28.8433 83.7155 28.2836 84.6896 27.8898C85.6845 27.4753 86.7727 27.268 87.9542 27.268C89.716 27.268 91.198 27.6722 92.4002 28.4805C93.6024 29.2889 94.4833 30.3356 95.0429 31.6207L91.312 33.1753C90.9596 32.4705 90.5036 31.942 89.944 31.5896C89.4051 31.2165 88.7211 31.03 87.892 31.03C87.3531 31.03 86.8453 31.1336 86.3685 31.3409C85.8918 31.5482 85.4669 31.8384 85.0938 32.2115C84.7415 32.5845 84.4616 33.0405 84.2544 33.5795C84.0471 34.1184 83.9435 34.7195 83.9435 35.3827C83.9435 36.046 84.0471 36.6471 84.2544 37.186C84.4616 37.7249 84.7415 38.1809 85.0938 38.554C85.4669 38.9271 85.8918 39.2173 86.3685 39.4245C86.8453 39.6318 87.3531 39.7355 87.892 39.7355C88.7418 39.7355 89.4569 39.5489 90.0373 39.1758C90.6384 38.782 91.1151 38.2224 91.4675 37.4969L95.1984 39.1136ZM104.744 27.268C105.926 27.268 107.004 27.4753 107.978 27.8898C108.973 28.2836 109.823 28.8433 110.527 29.5687C111.253 30.2735 111.812 31.1233 112.206 32.1182C112.621 33.1131 112.828 34.2013 112.828 35.3827C112.828 36.5642 112.621 37.6524 112.206 38.6473C111.812 39.6422 111.253 40.5024 110.527 41.2278C109.823 41.9325 108.973 42.4922 107.978 42.9067C107.004 43.3005 105.926 43.4975 104.744 43.4975C103.563 43.4975 102.475 43.3005 101.48 42.9067C100.506 42.4922 99.6559 41.9325 98.9305 41.2278C98.2258 40.5024 97.6661 39.6422 97.2516 38.6473C96.8578 37.6524 96.6608 36.5642 96.6608 35.3827C96.6608 34.2013 96.8578 33.1131 97.2516 32.1182C97.6661 31.1233 98.2258 30.2735 98.9305 29.5687C99.6559 28.8433 100.506 28.2836 101.48 27.8898C102.475 27.4753 103.563 27.268 104.744 27.268ZM104.744 39.7355C105.263 39.7355 105.76 39.6422 106.237 39.4556C106.734 39.2484 107.17 38.9582 107.543 38.5851C107.916 38.212 108.206 37.756 108.413 37.2171C108.641 36.6782 108.755 36.0667 108.755 35.3827C108.755 34.6987 108.641 34.0873 108.413 33.5484C108.206 33.0095 107.916 32.5535 107.543 32.1804C107.17 31.8073 106.734 31.5275 106.237 31.3409C105.76 31.1336 105.263 31.03 104.744 31.03C104.206 31.03 103.698 31.1336 103.221 31.3409C102.744 31.5275 102.319 31.8073 101.946 32.1804C101.573 32.5535 101.273 33.0095 101.045 33.5484C100.837 34.0873 100.734 34.6987 100.734 35.3827C100.734 36.0667 100.837 36.6782 101.045 37.2171C101.273 37.756 101.573 38.212 101.946 38.5851C102.319 38.9582 102.744 39.2484 103.221 39.4556C103.698 39.6422 104.206 39.7355 104.744 39.7355ZM113.525 27.7655H118.095L120.613 37.3104H120.831L123.847 27.7655H128.044L131.091 37.3104H131.309L133.796 27.7655H138.304L133.423 43H129.039L125.992 33.3929H125.775L122.728 43H118.406L113.525 27.7655ZM140.16 27.7655H143.984V29.8796H144.233C144.419 29.5065 144.668 29.1645 144.979 28.8536C145.29 28.5427 145.632 28.2733 146.005 28.0453C146.399 27.8173 146.813 27.6411 147.249 27.5167C147.705 27.3924 148.15 27.3302 148.586 27.3302C149.124 27.3302 149.58 27.382 149.954 27.4856C150.347 27.5893 150.679 27.724 150.948 27.8898L149.86 31.5896C149.612 31.4653 149.332 31.372 149.021 31.3098C148.731 31.2269 148.368 31.1855 147.933 31.1855C147.373 31.1855 146.865 31.2995 146.409 31.5275C145.953 31.7347 145.559 32.0353 145.228 32.4291C144.917 32.8229 144.668 33.2893 144.482 33.8282C144.316 34.3464 144.233 34.9164 144.233 35.5382V43H140.16V27.7655ZM155.091 25.558C154.738 25.558 154.396 25.4958 154.065 25.3715C153.754 25.2264 153.474 25.0398 153.225 24.8118C152.997 24.5631 152.811 24.2833 152.666 23.9724C152.541 23.6615 152.479 23.3195 152.479 22.9464C152.479 22.5733 152.541 22.2313 152.666 21.9204C152.811 21.6095 152.997 21.34 153.225 21.112C153.474 20.8633 153.754 20.6767 154.065 20.5524C154.396 20.4073 154.738 20.3347 155.091 20.3347C155.816 20.3347 156.438 20.5938 156.956 21.112C157.474 21.6095 157.733 22.2209 157.733 22.9464C157.733 23.6718 157.474 24.2936 156.956 24.8118C156.438 25.3093 155.816 25.558 155.091 25.558ZM153.07 43V27.7655H157.143V43H153.07ZM175.141 39.3313C174.437 40.5749 173.483 41.5802 172.281 42.3471C171.1 43.114 169.649 43.4975 167.928 43.4975C166.768 43.4975 165.69 43.3005 164.695 42.9067C163.721 42.4922 162.871 41.9222 162.145 41.1967C161.42 40.4713 160.85 39.6215 160.435 38.6473C160.042 37.6524 159.845 36.5642 159.845 35.3827C159.845 34.2842 160.042 33.2478 160.435 32.2736C160.829 31.2787 161.378 30.4185 162.083 29.6931C162.788 28.9469 163.617 28.3562 164.57 27.9209C165.545 27.4856 166.612 27.268 167.773 27.268C168.996 27.268 170.084 27.4753 171.037 27.8898C171.991 28.2836 172.789 28.8433 173.431 29.5687C174.074 30.2735 174.561 31.1129 174.893 32.0871C175.224 33.0613 175.39 34.1184 175.39 35.2584C175.39 35.4035 175.39 35.5278 175.39 35.6315C175.369 35.7558 175.359 35.8698 175.359 35.9735C175.338 36.0771 175.328 36.1911 175.328 36.3155H163.855C163.938 36.9373 164.104 37.4762 164.353 37.9322C164.622 38.3675 164.944 38.7405 165.317 39.0515C165.71 39.3416 166.135 39.5593 166.591 39.7044C167.047 39.8287 167.514 39.8909 167.99 39.8909C168.923 39.8909 169.69 39.6836 170.291 39.2691C170.913 38.8338 171.4 38.2949 171.752 37.6524L175.141 39.3313ZM171.442 33.424C171.421 33.1545 171.328 32.854 171.162 32.5224C171.017 32.1907 170.789 31.8798 170.478 31.5896C170.188 31.2995 169.814 31.0611 169.358 30.8745C168.923 30.688 168.395 30.5947 167.773 30.5947C166.902 30.5947 166.135 30.8435 165.472 31.3409C164.809 31.8384 164.342 32.5327 164.073 33.424H171.442ZM180.447 43.1865C179.701 43.1865 179.059 42.9275 178.52 42.4093C178.002 41.8704 177.743 41.2278 177.743 40.4816C177.743 39.7355 178.002 39.1033 178.52 38.5851C179.059 38.0669 179.701 37.8078 180.447 37.8078C181.194 37.8078 181.826 38.0669 182.344 38.5851C182.862 39.1033 183.121 39.7355 183.121 40.4816C183.121 41.2278 182.862 41.8704 182.344 42.4093C181.826 42.9275 181.194 43.1865 180.447 43.1865ZM186.168 31.2476H183.494V27.7655H186.168V23.1018H190.241V27.7655H193.972V31.2476H190.241V37.1549C190.241 37.5073 190.272 37.8389 190.334 38.1498C190.417 38.44 190.562 38.6887 190.769 38.896C191.059 39.2276 191.474 39.3935 192.013 39.3935C192.365 39.3935 192.645 39.3624 192.852 39.3002C193.06 39.2173 193.256 39.1136 193.443 38.9893L194.593 42.5647C194.117 42.7927 193.598 42.9585 193.039 43.0622C192.5 43.1865 191.899 43.2487 191.236 43.2487C190.469 43.2487 189.774 43.1347 189.152 42.9067C188.551 42.658 188.044 42.3264 187.629 41.9118C186.655 40.9791 186.168 39.6525 186.168 37.9322V31.2476ZM196.968 27.7655H200.792V29.8796H201.041C201.227 29.5065 201.476 29.1645 201.787 28.8536C202.098 28.5427 202.44 28.2733 202.813 28.0453C203.207 27.8173 203.621 27.6411 204.056 27.5167C204.512 27.3924 204.958 27.3302 205.393 27.3302C205.932 27.3302 206.388 27.382 206.761 27.4856C207.155 27.5893 207.487 27.724 207.756 27.8898L206.668 31.5896C206.419 31.4653 206.139 31.372 205.829 31.3098C205.538 31.2269 205.176 31.1855 204.74 31.1855C204.181 31.1855 203.673 31.2995 203.217 31.5275C202.761 31.7347 202.367 32.0353 202.035 32.4291C201.725 32.8229 201.476 33.2893 201.289 33.8282C201.123 34.3464 201.041 34.9164 201.041 35.5382V43H196.968V27.7655ZM218.411 41.3833H218.162C217.685 41.9636 217.105 42.4611 216.421 42.8756C215.758 43.2902 214.898 43.4975 213.841 43.4975C213.053 43.4975 212.307 43.3627 211.602 43.0933C210.918 42.8445 210.317 42.4922 209.799 42.0362C209.281 41.5802 208.876 41.0309 208.586 40.3884C208.296 39.7458 208.151 39.0411 208.151 38.2742C208.151 37.4865 208.306 36.7818 208.617 36.16C208.928 35.5175 209.363 34.9682 209.923 34.5122C210.483 34.0562 211.136 33.7142 211.882 33.4862C212.649 33.2375 213.478 33.1131 214.369 33.1131C215.364 33.1131 216.183 33.196 216.825 33.3618C217.468 33.5069 217.996 33.6624 218.411 33.8282V33.3618C218.411 32.5535 218.09 31.8902 217.447 31.372C216.805 30.8331 216.007 30.5636 215.053 30.5636C213.644 30.5636 212.452 31.1544 211.478 32.3358L208.524 30.3149C210.141 28.2836 212.348 27.268 215.146 27.268C217.509 27.268 219.313 27.8276 220.556 28.9469C221.8 30.0455 222.422 31.6829 222.422 33.8593V43H218.411V41.3833ZM218.411 36.8129C217.934 36.5849 217.437 36.4087 216.919 36.2844C216.421 36.1393 215.872 36.0667 215.271 36.0667C214.297 36.0667 213.54 36.2844 213.001 36.7196C212.483 37.1342 212.224 37.6524 212.224 38.2742C212.224 38.896 212.473 39.3935 212.97 39.7665C213.488 40.1396 214.079 40.3262 214.742 40.3262C215.281 40.3262 215.779 40.2329 216.235 40.0464C216.691 39.8391 217.074 39.58 217.385 39.2691C217.717 38.9375 217.965 38.5644 218.131 38.1498C218.318 37.7145 218.411 37.2689 218.411 36.8129ZM229.484 29.7553H229.733C230.21 28.9884 230.852 28.3873 231.66 27.952C232.469 27.496 233.391 27.268 234.428 27.268C235.381 27.268 236.22 27.4235 236.946 27.7344C237.671 28.0453 238.262 28.4909 238.718 29.0713C239.195 29.6309 239.547 30.3149 239.775 31.1233C240.024 31.9109 240.148 32.7918 240.148 33.766V43H236.075V34.2635C236.075 33.1649 235.827 32.3565 235.329 31.8384C234.852 31.2995 234.148 31.03 233.215 31.03C232.655 31.03 232.158 31.1544 231.723 31.4031C231.308 31.6311 230.945 31.9524 230.634 32.3669C230.344 32.7607 230.116 33.2375 229.95 33.7971C229.805 34.336 229.733 34.9164 229.733 35.5382V43H225.66V27.7655H229.484V29.7553ZM249.393 43.4975C248.398 43.4975 247.507 43.3731 246.719 43.1244C245.952 42.8756 245.278 42.5544 244.698 42.1605C244.138 41.746 243.662 41.2796 243.268 40.7615C242.874 40.2225 242.573 39.6836 242.366 39.1447L246.004 37.5902C246.356 38.3778 246.823 38.9685 247.403 39.3624C248.004 39.7355 248.667 39.922 249.393 39.922C250.139 39.922 250.73 39.7873 251.165 39.5178C251.6 39.2484 251.818 38.9271 251.818 38.554C251.818 38.1395 251.631 37.8078 251.258 37.5591C250.906 37.2896 250.284 37.0513 249.393 36.844L247.247 36.3776C246.771 36.274 246.273 36.1082 245.755 35.8802C245.258 35.6522 244.802 35.362 244.387 35.0096C243.973 34.6573 243.631 34.2324 243.361 33.7349C243.092 33.2375 242.957 32.6571 242.957 31.9938C242.957 31.2476 243.112 30.5844 243.423 30.004C243.755 29.4236 244.201 28.9365 244.76 28.5427C245.32 28.1282 245.973 27.8173 246.719 27.61C247.486 27.382 248.305 27.268 249.175 27.268C250.626 27.268 251.921 27.5582 253.061 28.1385C254.201 28.6982 255.041 29.5998 255.58 30.8435L252.067 32.2736C251.776 31.6725 251.351 31.2373 250.792 30.9678C250.232 30.6984 249.673 30.5636 249.113 30.5636C248.533 30.5636 248.025 30.688 247.589 30.9367C247.154 31.1647 246.937 31.4653 246.937 31.8384C246.937 32.1907 247.113 32.4705 247.465 32.6778C247.838 32.8851 248.336 33.0716 248.957 33.2375L251.289 33.7971C252.844 34.1702 253.994 34.7713 254.74 35.6004C255.507 36.4087 255.891 37.3725 255.891 38.4918C255.891 39.1551 255.735 39.7873 255.424 40.3884C255.113 40.9895 254.668 41.5284 254.087 42.0051C253.528 42.4611 252.844 42.8238 252.035 43.0933C251.248 43.3627 250.367 43.4975 249.393 43.4975ZM265.914 20.4902C266.495 20.4902 267.034 20.542 267.531 20.6456C268.029 20.7493 268.474 20.884 268.868 21.0498L267.718 24.6875C267.51 24.5838 267.282 24.5009 267.034 24.4387C266.806 24.3765 266.516 24.3455 266.163 24.3455C265.562 24.3455 265.085 24.5424 264.733 24.9362C264.381 25.3093 264.204 25.8378 264.204 26.5218V27.7655H267.998V31.2476H264.204V43H260.132V31.2476H257.396V27.7655H260.132V26.2731C260.132 25.3404 260.266 24.5216 260.536 23.8169C260.826 23.0915 261.23 22.4904 261.748 22.0136C262.266 21.5162 262.878 21.1431 263.583 20.8944C264.287 20.6249 265.065 20.4902 265.914 20.4902ZM284.233 39.3313C283.528 40.5749 282.575 41.5802 281.372 42.3471C280.191 43.114 278.74 43.4975 277.02 43.4975C275.859 43.4975 274.781 43.3005 273.786 42.9067C272.812 42.4922 271.962 41.9222 271.237 41.1967C270.511 40.4713 269.941 39.6215 269.527 38.6473C269.133 37.6524 268.936 36.5642 268.936 35.3827C268.936 34.2842 269.133 33.2478 269.527 32.2736C269.921 31.2787 270.47 30.4185 271.175 29.6931C271.879 28.9469 272.708 28.3562 273.662 27.9209C274.636 27.4856 275.704 27.268 276.864 27.268C278.087 27.268 279.175 27.4753 280.129 27.8898C281.082 28.2836 281.88 28.8433 282.523 29.5687C283.165 30.2735 283.652 31.1129 283.984 32.0871C284.316 33.0613 284.482 34.1184 284.482 35.2584C284.482 35.4035 284.482 35.5278 284.482 35.6315C284.461 35.7558 284.45 35.8698 284.45 35.9735C284.43 36.0771 284.419 36.1911 284.419 36.3155H272.947C273.03 36.9373 273.196 37.4762 273.444 37.9322C273.714 38.3675 274.035 38.7405 274.408 39.0515C274.802 39.3416 275.227 39.5593 275.683 39.7044C276.139 39.8287 276.605 39.8909 277.082 39.8909C278.015 39.8909 278.782 39.6836 279.383 39.2691C280.004 38.8338 280.492 38.2949 280.844 37.6524L284.233 39.3313ZM280.533 33.424C280.512 33.1545 280.419 32.854 280.253 32.5224C280.108 32.1907 279.88 31.8798 279.569 31.5896C279.279 31.2995 278.906 31.0611 278.45 30.8745C278.015 30.688 277.486 30.5947 276.864 30.5947C275.994 30.5947 275.227 30.8435 274.564 31.3409C273.9 31.8384 273.434 32.5327 273.164 33.424H280.533ZM287.083 27.7655H290.907V29.8796H291.156C291.342 29.5065 291.591 29.1645 291.902 28.8536C292.213 28.5427 292.555 28.2733 292.928 28.0453C293.322 27.8173 293.736 27.6411 294.171 27.5167C294.627 27.3924 295.073 27.3302 295.508 27.3302C296.047 27.3302 296.503 27.382 296.876 27.4856C297.27 27.5893 297.602 27.724 297.871 27.8898L296.783 31.5896C296.534 31.4653 296.255 31.372 295.944 31.3098C295.653 31.2269 295.291 31.1855 294.855 31.1855C294.296 31.1855 293.788 31.2995 293.332 31.5275C292.876 31.7347 292.482 32.0353 292.151 32.4291C291.84 32.8229 291.591 33.2893 291.404 33.8282C291.239 34.3464 291.156 34.9164 291.156 35.5382V43H287.083V27.7655Z" fill="black"/>
</svg>
