<svg width="79" height="57" viewBox="0 0 79 57" fill="none" xmlns="http://www.w3.org/2000/svg">
<path d="M34.8 8.4L36.4739 9.4945L37.563 7.82891L35.9029 6.73156L34.8 8.4ZM24.6 24L22.9261 22.9055L21.5252 25.048L23.943 25.889L24.6 24ZM32.2 29.8L30.5725 30.9625L30.5861 30.9814L30.6 31L32.2 29.8ZM30.2 52L31.6142 53.4142L31.6281 53.4003L31.6417 53.3862L30.2 52ZM5.6 52L4.15833 53.3862L4.18552 53.4145L4.21378 53.4417L5.6 52ZM1.8 32.8L-0.0123653 31.9542L-0.0361042 32.0051L-0.0569525 32.0572L1.8 32.8ZM5.6 26.4L7.23394 27.5534L7.24623 27.5359L7.25815 27.5183L5.6 26.4ZM23 0.599991L24.1029 -1.06845L22.4498 -2.16114L21.3419 -0.518295L23 0.599991ZM78.6 8.4L80.2739 9.4945L81.363 7.82891L79.7029 6.73156L78.6 8.4ZM68.4 24L66.7261 22.9055L65.3252 25.048L67.743 25.889L68.4 24ZM76 29.8L74.3725 30.9625L74.386 30.9814L74.4 31L76 29.8ZM74 52L75.4142 53.4142L75.4281 53.4003L75.4417 53.3862L74 52ZM49.4 52L47.9583 53.3862L47.9855 53.4145L48.0138 53.4417L49.4 52ZM45.6 32.8L43.7876 31.9542L43.7639 32.0051L43.743 32.0572L45.6 32.8ZM49.4 26.4L51.0339 27.5534L51.0462 27.5359L51.0582 27.5183L49.4 26.4ZM66.8 0.599991L67.9029 -1.06845L66.2498 -2.16114L65.1419 -0.518295L66.8 0.599991ZM33.1261 7.3055L22.9261 22.9055L26.2739 25.0945L36.4739 9.4945L33.1261 7.3055ZM23.943 25.889C26.5947 26.8113 28.7978 28.4779 30.5725 30.9625L33.8275 28.6375C31.6022 25.5221 28.7386 23.322 25.257 22.111L23.943 25.889ZM30.6 31C32.3003 33.267 33.2 36.0941 33.2 39.6H37.2C37.2 35.3725 36.0997 31.6663 33.8 28.6L30.6 31ZM33.2 39.6C33.2 43.882 31.7342 47.5189 28.7583 50.6138L31.6417 53.3862C35.3325 49.5478 37.2 44.918 37.2 39.6H33.2ZM28.7858 50.5858C25.8351 53.5364 22.2804 55 18 55V59C23.3196 59 27.8982 57.1302 31.6142 53.4142L28.7858 50.5858ZM18 55C13.718 55 10.0811 53.5342 6.98622 50.5583L4.21378 53.4417C8.05222 57.1325 12.682 59 18 59V55ZM7.04167 50.6138C4.0658 47.5189 2.6 43.882 2.6 39.6H-1.4C-1.4 44.918 0.467535 49.5478 4.15833 53.3862L7.04167 50.6138ZM2.6 39.6C2.6 37.2771 2.96653 35.2688 3.65695 33.5428L-0.0569525 32.0572C-0.966528 34.3311 -1.4 36.8562 -1.4 39.6H2.6ZM3.61237 33.6458C4.48462 31.7766 5.68584 29.7465 7.23394 27.5534L3.96607 25.2466C2.31416 27.5868 0.982048 29.8233 -0.0123653 31.9542L3.61237 33.6458ZM7.25815 27.5183L24.6581 1.71827L21.3419 -0.518295L3.94186 25.2817L7.25815 27.5183ZM21.8971 2.26843L33.6971 10.0684L35.9029 6.73156L24.1029 -1.06845L21.8971 2.26843ZM76.9261 7.3055L66.7261 22.9055L70.0739 25.0945L80.2739 9.4945L76.9261 7.3055ZM67.743 25.889C70.3948 26.8113 72.5978 28.4779 74.3725 30.9625L77.6275 28.6375C75.4022 25.5221 72.5386 23.322 69.057 22.111L67.743 25.889ZM74.4 31C76.1003 33.267 77 36.0941 77 39.6H81C81 35.3725 79.8997 31.6663 77.6 28.6L74.4 31ZM77 39.6C77 43.882 75.5342 47.5189 72.5583 50.6138L75.4417 53.3862C79.1325 49.5478 81 44.918 81 39.6H77ZM72.5858 50.5858C69.6351 53.5364 66.0804 55 61.8 55V59C67.1196 59 71.6982 57.1302 75.4142 53.4142L72.5858 50.5858ZM61.8 55C57.518 55 53.8811 53.5342 50.7862 50.5583L48.0138 53.4417C51.8522 57.1325 56.482 59 61.8 59V55ZM50.8417 50.6138C47.8658 47.5189 46.4 43.882 46.4 39.6H42.4C42.4 44.918 44.2675 49.5478 47.9583 53.3862L50.8417 50.6138ZM46.4 39.6C46.4 37.2771 46.7665 35.2688 47.457 33.5428L43.743 32.0572C42.8335 34.3311 42.4 36.8562 42.4 39.6H46.4ZM47.4124 33.6458C48.2846 31.7766 49.4858 29.7465 51.0339 27.5534L47.7661 25.2466C46.1142 27.5868 44.782 29.8233 43.7876 31.9542L47.4124 33.6458ZM51.0582 27.5183L68.4581 1.71827L65.1419 -0.518295L47.7419 25.2817L51.0582 27.5183ZM65.6971 2.26843L77.4971 10.0684L79.7029 6.73156L67.9029 -1.06845L65.6971 2.26843Z" fill="black"/>
</svg>
