<svg width="293" height="216" viewBox="0 0 293 216" fill="none" xmlns="http://www.w3.org/2000/svg">
<path d="M108.815 209.086H155.715C157.515 209.086 159.015 207.586 159.015 205.786C159.015 203.986 157.515 202.486 155.715 202.486H108.815C107.015 202.486 105.515 203.986 105.515 205.786C105.515 207.586 107.015 209.086 108.815 209.086Z" fill="#CDB9FF"/>
<path d="M19.8144 209.086H110.214C112.114 209.086 113.614 207.386 113.214 205.486L102.614 147.186C102.314 145.686 101.114 144.686 99.6144 144.686H9.21444C7.31444 144.686 5.81444 146.386 6.21444 148.286L16.8144 206.586C17.1144 207.986 18.3144 209.086 19.8144 209.086Z" fill="#CDB9FF"/>
<path d="M246.115 214.186H97.1145C97.1145 214.186 82.3145 94.7856 105.815 85.7856C129.315 76.7856 194.515 78.8856 213.015 90.2856C236.415 104.786 246.115 214.186 246.115 214.186Z" fill="#7BC075"/>
<path d="M79.1146 132.386L62.0146 191.886L91.3147 191.086L103.615 137.186L79.1146 132.386Z" fill="#9D6F52"/>
<path d="M105.815 85.7856C105.815 85.7856 93.2147 92.4855 82.5147 118.186C74.2147 137.786 74.3148 134.586 74.3148 134.586L108.215 140.886C108.115 140.886 113.115 86.5856 105.815 85.7856Z" fill="#7BC075"/>
<path d="M194.215 136.386C194.215 136.386 203.415 176.586 200.115 176.586C196.815 176.586 151.515 185.786 151.515 185.786L154.815 196.686C154.815 196.686 238.515 205.086 244.415 192.486C250.315 179.886 231.015 125.486 231.015 125.486L194.215 136.386Z" fill="#9D6F52"/>
<path d="M151.515 185.786C151.515 185.786 140.315 186.586 135.915 189.386C131.415 192.186 128.915 195.286 130.615 195.786C132.315 196.386 135.915 197.986 138.115 196.386C140.315 194.686 150.915 198.386 154.815 196.686C158.815 194.986 151.515 185.786 151.515 185.786Z" fill="#9D6F52"/>
<path d="M130.915 196.086C130.915 196.086 132.515 192.886 135.515 191.386C138.615 189.886 139.115 189.886 139.115 189.886" stroke="#805A43" stroke-miterlimit="10" stroke-linecap="round" stroke-linejoin="round"/>
<path d="M133.415 196.786C133.415 196.786 135.015 193.386 138.315 192.586C140.515 191.986 141.215 191.886 141.215 191.886" stroke="#805A43" stroke-miterlimit="10" stroke-linecap="round" stroke-linejoin="round"/>
<path d="M130.415 81.3856L138.615 99.1856L148.215 92.7856L162.415 98.8856L175.815 81.3856" stroke="#16710D" stroke-miterlimit="10"/>
<path d="M148.715 103.686C149.93 103.686 150.915 102.701 150.915 101.486C150.915 100.271 149.93 99.2856 148.715 99.2856C147.5 99.2856 146.515 100.271 146.515 101.486C146.515 102.701 147.5 103.686 148.715 103.686Z" fill="#16710D"/>
<path d="M148.715 111.886C149.93 111.886 150.915 110.901 150.915 109.686C150.915 108.471 149.93 107.486 148.715 107.486C147.5 107.486 146.515 108.471 146.515 109.686C146.515 110.901 147.5 111.886 148.715 111.886Z" fill="#16710D"/>
<path d="M144.615 95.4856V117.086H153.514" stroke="#16710D" stroke-miterlimit="10"/>
<path d="M184.715 134.186H162.415V138.286H184.715V134.186Z" stroke="#16710D" stroke-miterlimit="10"/>
<path d="M194.215 136.386L189.215 115.486" stroke="#16710D" stroke-miterlimit="10"/>
<path d="M103.415 139.286L107.415 114.486" stroke="#16710D" stroke-miterlimit="10"/>
<path d="M116.015 44.1856C116.015 63.2856 121.915 78.2856 136.415 78.2856C150.915 78.2856 168.515 63.2856 168.515 44.1856C168.515 25.0856 151.015 9.08556 136.515 9.08556C122.015 9.08556 116.015 25.0856 116.015 44.1856Z" fill="#9D6F52"/>
<path d="M162.015 61.2856L163.215 82.0856L148.215 92.7856L140.715 81.8856L138.115 70.1856L162.015 61.2856Z" fill="#9D6F52"/>
<path d="M159.915 36.6856C159.915 36.6856 149.015 32.4855 147.315 20.7856C147.315 20.7856 121.315 36.6856 111.315 34.1856C101.315 31.6856 93.7146 8.18555 109.615 2.38555C125.515 -3.41445 132.415 3.18555 147.515 3.18555C162.615 3.18555 166.815 5.38555 170.215 7.28555C173.915 9.38555 178.715 20.7855 171.615 34.9855C164.515 49.1856 159.915 36.6856 159.915 36.6856Z" fill="#4A3324"/>
<path d="M142.215 46.7856C143.209 46.7856 144.015 45.6663 144.015 44.2856C144.015 42.9048 143.209 41.7856 142.215 41.7856C141.22 41.7856 140.415 42.9048 140.415 44.2856C140.415 45.6663 141.22 46.7856 142.215 46.7856Z" fill="#4A3324"/>
<path d="M124.115 46.7856C125.109 46.7856 125.915 45.6663 125.915 44.2856C125.915 42.9048 125.109 41.7856 124.115 41.7856C123.121 41.7856 122.315 42.9048 122.315 44.2856C122.315 45.6663 123.121 46.7856 124.115 46.7856Z" fill="#4A3324"/>
<path d="M131.215 45.2856C131.215 45.2856 125.015 54.1856 126.315 55.2856C127.615 56.3856 132.615 57.1856 132.615 57.1856L131.215 45.2856Z" fill="#805A43"/>
<path d="M132.015 64.0855C132.015 64.0855 140.815 61.6855 144.215 62.0855C147.615 62.4855 143.715 69.6855 138.215 70.2855C132.615 70.7855 132.015 64.0855 132.015 64.0855Z" fill="#805A43"/>
<path d="M167.615 54.1855C167.615 54.1855 164.315 66.8855 153.515 68.2855" stroke="#16710D" stroke-miterlimit="10"/>
<path d="M152.215 71.8856C153.982 71.8856 155.415 70.4529 155.415 68.6855C155.415 66.9182 153.982 65.4855 152.215 65.4855C150.447 65.4855 149.015 66.9182 149.015 68.6855C149.015 70.4529 150.447 71.8856 152.215 71.8856Z" fill="#16710D"/>
<path d="M144.415 3.08555C144.415 3.08555 157.215 2.48555 160.215 17.0856C163.215 31.5856 161.715 37.1856 161.715 37.1856L171.615 36.1856C171.615 36.1856 171.415 21.9856 169.115 14.8856C165.815 4.48555 157.615 3.58555 157.615 3.58555L144.415 3.08555Z" fill="#188A0E"/>
<path d="M137.915 35.1856C137.915 35.1856 141.215 32.5856 146.815 35.1856" stroke="#4A3324" stroke-width="2" stroke-miterlimit="10" stroke-linecap="round" stroke-linejoin="round"/>
<path d="M119.615 35.1856C119.615 35.1856 122.915 32.5856 128.515 35.1856" stroke="#4A3324" stroke-width="2" stroke-miterlimit="10" stroke-linecap="round" stroke-linejoin="round"/>
<path d="M167.915 56.7856C173.915 56.7856 178.915 51.8856 178.915 45.7856V41.7856C178.915 35.7856 174.015 30.7856 167.915 30.7856C161.915 30.7856 156.915 35.6856 156.915 41.7856V45.7856C156.915 51.8856 161.815 56.7856 167.915 56.7856Z" fill="#16710D"/>
<path d="M169.515 51.3856C173.115 51.3856 176.115 48.3856 176.115 44.7856V42.3856C176.115 38.7856 173.115 35.7856 169.515 35.7856C165.915 35.7856 162.915 38.7856 162.915 42.3856V44.7856C163.015 48.4856 165.915 51.3856 169.515 51.3856Z" stroke="#188A0E" stroke-miterlimit="10"/>
<path d="M14.8144 209.086H105.214C107.114 209.086 108.614 207.386 108.214 205.486L97.6144 147.186C97.3144 145.686 96.1144 144.686 94.6144 144.686H4.21444C2.31444 144.686 0.814441 146.386 1.21444 148.286L11.8144 206.586C12.0144 207.986 13.3144 209.086 14.8144 209.086Z" fill="black"/>
<path d="M-6.10352e-05 215.035L292.2 215.035V209.135L-6.10352e-05 209.135V215.035Z" fill="#D8F4D5"/>
<path d="M55.6251 186.134C59.187 185.686 61.6666 182.08 61.1634 178.079C60.6602 174.079 57.3649 171.199 53.8031 171.648C50.2412 172.096 47.7616 175.702 48.2648 179.702C48.768 183.702 52.0633 186.582 55.6251 186.134Z" fill="white"/>
</svg>
